<svg width="105" height="72" viewBox="0 0 105 72" fill="none" xmlns="http://www.w3.org/2000/svg">
<path d="M73.1588 22.8197C73.1588 28.2916 71.0809 33.2755 67.672 37.0297C64.5669 40.4486 62.4192 44.5811 61.3886 49.0141H55.7242V43.9421C55.7242 42.9132 55.3077 41.9838 54.6338 41.3082C53.9599 40.6343 53.029 40.2178 52.0016 40.2178C49.9436 40.2178 48.2772 41.8857 48.2772 43.9421V49.0141H42.5945C41.5373 44.5462 39.3333 40.3922 36.2215 36.9118C32.9488 33.2523 30.9305 28.4493 30.8443 23.1733C30.6533 11.6171 39.9325 1.93965 51.487 1.66571C63.4067 1.38362 73.1588 10.9632 73.1588 22.8197Z" fill="#F1DCBD"/>
<path d="M55.7242 49.0141H61.3886C60.9306 50.9907 60.6932 53.0254 60.6932 55.085V55.475H43.3082V55.0882C43.3082 53.0236 43.0642 50.9889 42.5945 49.0139H48.2772H55.7242V49.0141Z" fill="#E1EAF6"/>
<path d="M60.6932 55.4751V58.9089C60.6932 63.7103 56.8013 67.6005 52.0016 67.6005C47.2002 67.6005 43.3082 63.7103 43.3082 58.9089V55.4751H60.6932Z" fill="#9DA6BA"/>
<path d="M55.7242 43.9421V49.0141H48.2774V43.9421C48.2774 41.8857 49.9436 40.2178 52.0017 40.2178C53.029 40.2178 53.9601 40.6343 54.6339 41.3082C55.3075 41.9838 55.7242 42.9132 55.7242 43.9421Z" fill="#F1DCBD"/>
<path d="M29.1848 23.2004C29.2742 28.6741 31.3341 33.9366 34.9843 38.0181C37.4658 40.7934 39.3271 44.032 40.4397 47.477C39.8329 47.724 39.4047 48.3187 39.4047 49.0141C39.4047 49.9307 40.1479 50.6737 41.0644 50.6737H41.2462C41.5124 52.1314 41.6486 53.611 41.6486 55.0884V55.4751V58.9089C41.6486 64.0517 45.4199 68.329 50.342 69.1253V70.3405C50.342 71.2571 51.0852 72.0001 52.0017 72.0001C52.9182 72.0001 53.6614 71.2571 53.6614 70.3405V69.1253C58.5826 68.3286 62.3529 64.0516 62.3529 58.9089V55.4751V55.0851C62.3529 53.6096 62.4853 52.131 62.7442 50.6737H62.8441C63.7605 50.6737 64.5037 49.9307 64.5037 49.0141C64.5037 48.3407 64.1021 47.7624 63.5258 47.5021C64.6207 44.0428 66.4551 40.8381 68.9008 38.1454C72.7168 33.9429 74.8185 28.5002 74.8185 22.8199C74.8185 16.6222 72.3761 10.8237 67.9412 6.49269C63.5082 2.16325 57.6589 -0.139779 51.4475 0.00675334C38.9656 0.302489 28.9785 10.7074 29.1848 23.2004ZM59.0335 58.909C59.0335 62.7865 55.879 65.941 52.0017 65.941C48.1232 65.941 44.9679 62.7865 44.9679 58.909V57.1349H59.0334V58.909H59.0335ZM59.0649 53.8156H44.9357C44.8875 52.764 44.7793 51.7146 44.6124 50.6739H48.2772H55.7241H59.3803C59.2173 51.7151 59.112 52.7645 59.0649 53.8156ZM53.4589 42.4806C53.8495 42.8721 54.0645 43.3911 54.0645 43.9423V47.3545H49.937V43.9423C49.937 42.8038 50.8633 41.8776 52.0017 41.8776C52.5525 41.8776 53.0705 42.0922 53.4589 42.4806ZM51.5262 3.32509C56.8295 3.19881 61.8338 5.16799 65.6221 8.86729C69.412 12.5686 71.4991 17.5235 71.4991 22.8199C71.4991 27.6736 69.7038 32.3238 66.4435 35.9139C63.4765 39.1807 61.3039 43.1137 60.1061 47.3544H57.3837V43.9421C57.3837 42.5991 56.8945 41.3303 55.9995 40.3379L60.1747 32.5367C60.6073 31.7284 60.3027 30.7229 59.4947 30.2902C58.6869 29.8579 57.6809 30.1622 57.2483 30.9703L53.1245 38.6758C52.7594 38.5986 52.3838 38.558 52.0017 38.558C51.6304 38.558 51.2678 38.5958 50.9176 38.6677L46.798 30.9703C46.3657 30.1622 45.3597 29.8576 44.5516 30.2902C43.7436 30.7228 43.439 31.7285 43.8716 32.5367L48.0317 40.3096C47.1542 41.2678 46.6178 42.5433 46.6178 43.942V47.3543H43.872C42.6616 43.1352 40.4632 39.1652 37.459 35.8054C34.3401 32.3181 32.5803 27.8222 32.5041 23.1458C32.3273 12.4694 40.8609 3.5778 51.5262 3.32509Z" fill="black"/>
<path d="M45.8592 27.7156C47.0299 27.7156 48.1028 27.288 48.9296 26.5809C49.7563 27.288 50.8292 27.7156 52 27.7156C53.1709 27.7156 54.2437 27.288 55.0704 26.5809C55.8972 27.288 56.9701 27.7156 58.1408 27.7156C60.749 27.7156 62.8709 25.5937 62.8709 22.9855C62.8709 22.0689 62.1277 21.3259 61.2113 21.3259C60.2948 21.3259 59.5516 22.0689 59.5516 22.9855C59.5516 23.7635 58.9188 24.3963 58.1408 24.3963C57.3629 24.3963 56.7301 23.7635 56.7301 22.9855C56.7301 22.0689 55.9869 21.3259 55.0704 21.3259C54.154 21.3259 53.4108 22.0689 53.4108 22.9855C53.4108 23.7635 52.7779 24.3963 52 24.3963C51.2221 24.3963 50.5892 23.7635 50.5892 22.9855C50.5892 22.0689 49.846 21.3259 48.9296 21.3259C48.0131 21.3259 47.2699 22.0689 47.2699 22.9855C47.2699 23.7635 46.6371 24.3963 45.8592 24.3963C45.0812 24.3963 44.4484 23.7635 44.4484 22.9855C44.4484 22.0689 43.7052 21.3259 42.7888 21.3259C41.8723 21.3259 41.1291 22.0689 41.1291 22.9855C41.1291 25.5939 43.251 27.7156 45.8592 27.7156Z" fill="black"/>
<path d="M4.84091 55.7273V53L26.7955 41.8182V46.1818L9.95455 54.2955L10.0909 54.0227V54.7045L9.95455 54.4318L26.7955 62.5455V66.9091L4.84091 55.7273Z" fill="black"/>
<path d="M99.7955 55.7273L77.8409 66.9091V62.5455L94.6818 54.4318L94.5455 54.7045V54.0227L94.6818 54.2955L77.8409 46.1818V41.8182L99.7955 53V55.7273Z" fill="black"/>
</svg>
